<svg xmlns="http://www.w3.org/2000/svg" viewBox="0 0 1329.96 213.52"><title>Railway Club</title><g id="Layer_2" data-name="Layer 2"><g id="Layer_1-2" data-name="Layer 1"><path d="M1265.19,21.63a12.54,12.54,0,0,0,2,0c3.51-.58,7,0,10.46.31a20.24,20.24,0,0,1,6.2,1.69c4.35,1.91,8.66,3.88,12.31,7.11a25.43,25.43,0,0,1,7.38,11.2A36.41,36.41,0,0,1,1305,56.73a29.13,29.13,0,0,1-3.69,11.58,25.06,25.06,0,0,1-4.08,5.83,9.9,9.9,0,0,0-1.07,1.32c-.72,1-.44,1.72.76,1.92l6,1c5.14.88,9.61,3.41,13.8,6.25a27.21,27.21,0,0,1,8.82,9.76,37.7,37.7,0,0,1,4.39,15.24,21.42,21.42,0,0,1-1.87,9.94,43.36,43.36,0,0,1-12.74,16.92,58.9,58.9,0,0,1-21.08,10.61c-9.49,2.7-19.17,4.5-28.78,6.63-7.73,1.72-15.49,3.34-23.25,4.93-3.32.68-6.68,1.16-10,1.79-4,.75-8,1.52-12,2.36a71,71,0,0,1-10.77,1.34.68.68,0,0,1-.66-.93,24.54,24.54,0,0,1,1.61-2.57,19.27,19.27,0,0,0,3.26-5.92,17.18,17.18,0,0,0,.33-8.07c-1.42-6.87-18-79.47-20.75-89.65a29.89,29.89,0,0,0-7.11-12.61,24.62,24.62,0,0,0-4.34-3.22c-.84-.57-1.79-1-2.63-1.54a.63.63,0,0,1,0-1.12,21.25,21.25,0,0,1,4.37-1.77c8.18-1.76,16.37-3.5,24.6-5,7.79-1.46,15.39-3.7,23.17-5.15,2-.37,4-.67,6-1,4.89-.86,9.79-1.71,14.67-2.63a74.6,74.6,0,0,1,13.23-1.34ZM1245,41.34a71.8,71.8,0,0,0-7.36,1.07c-3,.73-4,0-2.91,4.43,2.71,11.09,5.34,22.2,8,33.3a12.4,12.4,0,0,0,.63,1.94,1.6,1.6,0,0,0,1.86,1.12c5.21-.87,10.09-2.5,14.16-6a13.24,13.24,0,0,0,4.39-7.1,22.33,22.33,0,0,0,.43-10.07,33,33,0,0,0-3.46-9.16,17.51,17.51,0,0,0-4.37-5.57,18.42,18.42,0,0,0-11.37-4Zm36.11,77.49a10.56,10.56,0,0,0,0-1.31c-.43-4.47-1.64-8.64-4.73-12.08a11.22,11.22,0,0,0-8.55-4.12,73.39,73.39,0,0,0-11.47.86c-2,.28-4,.81-6,1.2-1.45.29-2,.63-1.65,2.33.83,4.21,6.31,29,6.77,31.1a1.38,1.38,0,0,0,1.66,1.3,11.21,11.21,0,0,0,2.68-.34q4.87-1.44,9.7-3c3.69-1.21,6.35-3.7,8.67-6.75a13,13,0,0,0,2.92-9.21ZM503,92a42.66,42.66,0,0,0-.38-5.07,14.86,14.86,0,0,0-3.4-7.31,1.87,1.87,0,0,1-.59-1.43c.12-.43.88-.65,1.36-.65,2.38,0,4.75.1,7.13.22,1.35.07,2.7.25,4,.38L524,79.34c.79.07,1.59,0,2.37.16a11.48,11.48,0,0,1,2.64.56c1.94.77,2.15,2.08.68,3.65a12.75,12.75,0,0,1-1,.94,46,46,0,0,0-11.16,16.45c-1.46,3.47-11,42.61-13.4,51.91-3,11.39-12.63,46.76-13.58,50.14a2,2,0,0,1-2,1.55c-1.69,0-23.89-1.81-26.37-2a1.61,1.61,0,0,1-1.54-1.52c-.47-2.45-8.57-39.36-10.58-48.42-.83-3.75-1.61-7.51-2.43-11.27a1.51,1.51,0,0,0-.48-.86c-.21-.16-.78-.21-.88-.07a5.67,5.67,0,0,0-.73,1.5c-2,6-17.54,48.18-20.08,54.84-.61,1.6-.8,1.76-2.39,1.78a5.29,5.29,0,0,1-.68,0c-5.28-.62-29.09-3.2-31.68-3.5-1.45-.17-2-.87-1.87-2.28.16-2.94.33-5.87.42-8.81.76-.61,1.76-77.53-3.58-96.12a44.85,44.85,0,0,0-2.35-7.77,51.18,51.18,0,0,0-3.42-7,49.39,49.39,0,0,0-3.43-4.62,17.5,17.5,0,0,1-1.15-1.67,1,1,0,0,1,.45-1.34l.11,0c1.67-.21,3.29-.72,5-.43,5.47.92,11,1.1,16.54,1.62,1.8.17,3.59.47,5.38.69q8.41,1,16.83,2c1.46.18,2.91.44,4.36.68s1.8.64,2.07,2.23a93.26,93.26,0,0,1,.75,10.49c.29,5.42.75,10.83,1.14,16.25,0,.34.07.68.08,1q.4,9,.79,18l.68,15.61a3.94,3.94,0,0,0,.24,1,.33.33,0,0,0,.24.19,1.12,1.12,0,0,0,.6-.12,1.15,1.15,0,0,0,.38-.55c3.11-9.34,15.19-47.5,16.22-51.08.72-2.5,1.55-5,2.3-7.45a2.81,2.81,0,0,1,3-2.24c.91,0,1.81,0,2.72,0,5.08.27,10.13.9,15.17,1.6.67.09,1.32.34,2,.48A2.12,2.12,0,0,1,474,77.09c.31,1,.61,2,.85,2.93,1.39,5.83,10.56,48.65,12,55.75.44,2.22.81,4.45,1.23,6.68a16.78,16.78,0,0,0,.44,2,1.15,1.15,0,0,0,.6.71,1.06,1.06,0,0,0,.7-.53c.53-1.49,1.08-3,1.48-4.51,2.57-9.74,9.43-35.8,10.44-39A27.12,27.12,0,0,0,503,92ZM62.26,119.08c.12-5.1,0-10.23-1.58-15.11a22,22,0,0,0-5.55-8.81,2.63,2.63,0,0,0-1.85-.56,3.94,3.94,0,0,0-3.62,2.67c-1.4,4.64-5.9,22.07-6.54,27.56a16.59,16.59,0,0,0-.15,6.06,15.87,15.87,0,0,1,.17,3.73c0,1.72-.47,2.15-2.3,2.13a15.27,15.27,0,0,1-3-.32q-7.14-1.52-14.26-3.14c-7-1.61-14-3.53-21.15-4.73-1.71-.29-2.63-.9-2.39-1.45.42-.94,1.37-1.11,2.21-1.38A18.87,18.87,0,0,0,8,122.9c2.48-1.88,4-4.35,5.53-7.12,4.22-7.44,23.83-99.51,22.63-106.52a17.87,17.87,0,0,0-3.5-7.65A6.28,6.28,0,0,1,32.13.46,4,4,0,0,1,33.61,0,47.65,47.65,0,0,1,39,.81C43.5,1.81,48,3,52.52,4c4,.92,7.94,1.77,11.92,2.66,1.43.32,2.89.57,4.3,1a117,117,0,0,0,11.55,2.66,18,18,0,0,1,5.41,1.91,56.35,56.35,0,0,0,6.24,2.66,16,16,0,0,1,4.67,2.69c3,2.58,6.32,4.77,8.6,8.09a1.89,1.89,0,0,0,.23.25A15.42,15.42,0,0,1,110,33.69a12.39,12.39,0,0,0,1.13,2.46,31.71,31.71,0,0,1,3.41,13.37,5.83,5.83,0,0,0,.11,1.69c.78,2.49.34,5-.2,7.38s-1.23,5-1.94,7.55a16.33,16.33,0,0,1-1.2,2.8c-.65,1.31-1.25,2.65-1.89,3.94a25.37,25.37,0,0,1-4.23,6.1A43.7,43.7,0,0,1,94.49,87.7c-1.88,1-3.6,2.3-5.71,2.92a10.15,10.15,0,0,0-2.64,1.52A.88.88,0,0,0,86,93.59c.38.42.8.8,1.21,1.19,11.52,6.59,8.19,29.2,8.27,30.78a3.67,3.67,0,0,0,2.66,3.5,7.31,7.31,0,0,0,5.93.13,19.52,19.52,0,0,0,5.26-3c1.36-1.25,2.13-3.15,3.12-4.79.29-.48.37-1.08.63-1.57s.37-1.49,1.19-1.34c.37.07.62.86.89,1.35.55,1,.12,2,0,3-.19,1.45-.44,2.89-.68,4.33a12.81,12.81,0,0,1-.45,2.32,28.66,28.66,0,0,1-6.43,10.26c-11.87,11.65-26.26,8.24-28.16,8-5.15-.72-10-2.14-13.29-6.58a18.11,18.11,0,0,1-3.34-8.44,70.39,70.39,0,0,1-.56-13.65Zm21.5-78.8a24.17,24.17,0,0,0,0-3.73c-.42-2.65-.49-5.33-1.92-7.82-1.88-3.28-4.94-4.89-8-6.52a2.74,2.74,0,0,0-4,1.46c-.48,1-11.93,42.56-12.61,44.72-.54,1.73-1.06,3.46-1.59,5.19a5,5,0,0,0,.29,3.31,1.8,1.8,0,0,0,1.74,1.34,26.74,26.74,0,0,0,7.75-.57,10.86,10.86,0,0,0,4.26-2A35.2,35.2,0,0,0,76.78,68a9.13,9.13,0,0,0,1-2.11l3-9.35c1.76-5.28,3.25-10.6,3-16.23ZM1159.93,127c.14-5-11.34-67-13.4-70.94a23.18,23.18,0,0,0-6.13-7.19c-.44-.36-.94-.64-1.36-1a1.37,1.37,0,0,1,.33-2.46c1-.5,26.08-5.27,27.2-5.28a1.74,1.74,0,0,1,1.75,2.53,14.41,14.41,0,0,1-.9,1.83,16,16,0,0,0-1.87,7.16c-.21,4.55,10.53,55.22,11.27,58.87.33,1.66.54,3.34.74,5,.31,2.58.59,5.17.81,7.76a16.26,16.26,0,0,1-.09,3c-.35,3.26-.85,6.51-1.09,9.77a29.62,29.62,0,0,1-1.54,7.64,110,110,0,0,1-4.53,11.35,33.19,33.19,0,0,1-8.76,10.7,36.45,36.45,0,0,0-3.09,2.64,22.34,22.34,0,0,1-8.21,5.32c-3.78,1.51-7.65,2.82-11.53,4.06a24.49,24.49,0,0,1-4.68.75,99.42,99.42,0,0,1-10.11,1.09c-3.16,0-6.31.54-9.47.57-10.51.08-26.37-8-31.92-14.82a53.55,53.55,0,0,1-9-15.83c-.68-1.91-15.36-66-16.48-68.57a88.3,88.3,0,0,0-4.54-9.11,26.44,26.44,0,0,0-8.76-9.33,4.28,4.28,0,0,1-.82-1,5.39,5.39,0,0,1,1.16-.61c1.53-.39,51.11-8.71,54.13-9.15a21.27,21.27,0,0,1,4.06-.08,1.09,1.09,0,0,1,.79,1.77,19.12,19.12,0,0,1-1.59,2.2c-2.8,3.26-3.57,7.23-4,11.33v.34c-.4,4.78,10.42,62.48,13,72a23.33,23.33,0,0,0,1.27,3.51c.89,2,2,3.83,2.82,5.81,2.42,5.6,10.42,12.6,14.74,12.92,1.8.13,15.67-2.32,17.14-4.24a8.34,8.34,0,0,1,2-1.86c2.82-1.89,4.63-4.64,6.41-7.39a20.26,20.26,0,0,0,1.55-3.75,39.65,39.65,0,0,0,2.7-17.36Z"/><path d="M555.36,93.74a15.8,15.8,0,0,0-1.22-6.47c-.5-1.36-1.64-2.14-2.33-3.29-.45-.75-.28-1.42.53-1.53,1.23-.17,33.19.86,37.25,1.19a2.9,2.9,0,0,1,2.81,2c.18.54.4,1.06.59,1.59,2.63,7.23,33.86,96.28,37.2,104.94a62.87,62.87,0,0,0,3.38,7c1.74,3.25,4.43,5.74,7.12,8.14,1.58,1.41,3,3.07,4.89,4.12.14.08.3.39.25.5a.77.77,0,0,1-.52.39,19.67,19.67,0,0,1-4.69.34c-4-.59-46.52-1-49.12-1.17l-.33,0c-.94-.17-1.46-1-.89-1.72a11.65,11.65,0,0,0,2.11-5.3,10.27,10.27,0,0,0,.18-3,54.91,54.91,0,0,0-2.3-11.6c-1-2.9-2-5.76-3-8.66a2.93,2.93,0,0,0-2.62-2.28c-2.13-.22-42.59-3.21-44.28-3.38a2.3,2.3,0,0,0-2.46,1.42c-2.78,5.45-5.59,10.91-6.68,17-.65,3.65-1.55,7.32-.68,11.1.32,1.41-.22,2.1-1.55,2.61-1.65.62-22.25-1.32-24.94-1.61-.47,0-1.18-.5-1.25-.86s.37-1,.74-1.37c1.74-1.61,3.61-3.09,5.3-4.75,5.24-5.16,8.86-11.43,12-18,2.27-4.81,30-70.62,32.43-76.94.94-2.53,2.37-7.69,2.08-10.41Zm20.58,68.15c4.13,0,4.17,0,2.88-3.82-2.7-8-11.49-33-13.15-37.44a10.1,10.1,0,0,0-.53-1.25.9.9,0,0,0-1.62-.12,14.91,14.91,0,0,0-1,1.79c-2.13,4.87-4.26,9.74-6.35,14.63-2.31,5.41-4.55,10.84-6.84,16.27-.88,2.09-1.81,4.15-2.65,6.25a1.36,1.36,0,0,0,1.11,2,14.92,14.92,0,0,0,1.69.14c1.85.13,25.33,1.55,26.47,1.55Z"/><path d="M761.18,85a7.58,7.58,0,0,1,2.31.37c.22.07.35.75.31,1.12s-.39.55-.66.73a11.5,11.5,0,0,1-2.6,1.57A29.26,29.26,0,0,0,752.85,93q-2.91,2-5.76,4.14c-1.18.88-2.28,1.86-3.42,2.79-2.62,2.15-5.3,4.23-7.82,6.49-1.33,1.2-25.72,32.1-29.67,37-1.27,1.59-2.42,3.28-3.65,4.9a6,6,0,0,0-.9,2.87c-.78,4.83-1.36,40.15-1.44,47.86a29.7,29.7,0,0,0,1,7.73,21.62,21.62,0,0,0,2.09,4.23,1.33,1.33,0,0,1-.84,2.12,9.66,9.66,0,0,1-2.66.43c-6.8,0-31.93-.42-37.68-.74a9.75,9.75,0,0,1-2-.31,1.1,1.1,0,0,1-.76-1.79c.73-1.28,1.42-2.59,2.26-3.8,2.84-4.07,3.74-8.71,3.88-13.51s-.65-24.06-.44-31.93c.06-2.09-1-3.64-2.16-5.2-4.39-5.9-8.74-11.84-13.14-17.74-3.11-4.18-6.28-8.31-9.43-12.46-.27-.36-.62-.67-.86-1-4-6.34-9-11.89-13.45-17.91-3-4-5.8-8.1-9-12a46.4,46.4,0,0,0-5.75-5.25c-.94-.81-2-1.5-3-2.27a4.4,4.4,0,0,1-.94-1,1.46,1.46,0,0,1,1.06-2.29,12.21,12.21,0,0,1,3,0c3.59.63,50.68,1.24,54.42,1.26a18.35,18.35,0,0,1,2.38.13,1.91,1.91,0,0,1,1.19,3.11c-.33.46-.76.84-1.11,1.28a8.77,8.77,0,0,0-.09,10.74c3.85,5.18,19.78,25.51,23.73,30.62.48.62.86,1.33,1.29,2,.63,1,1.13,1.06,1.8.28s1.43-1.75,2.17-2.62C702.4,125,723.06,100.8,724,99.54a27.82,27.82,0,0,0,3-4.5,7.74,7.74,0,0,0,.08-7.5c-.86-1.57-.65-1.87,1.14-2.22A18,18,0,0,1,731.6,85C736.47,85,756.19,85,761.18,85ZM151.25,123.16c-2.81-.29-5.44.48-8.1,1a7.19,7.19,0,0,0-4.57,3.27c-2.19,3.28-9,15.72-10.08,18.7-.65,1.82-1.34,3.61-.82,5.62a2.92,2.92,0,0,1-.19,1.32,1.41,1.41,0,0,1-1.44,1.2,4.27,4.27,0,0,1-1.35-.07c-4.55-1.49-17.94-3.59-19.9-4.13a1.59,1.59,0,0,1-.8-.94c-.07-.2.2-.65.44-.82,1.48-1,3.08-1.92,4.48-3,2.38-1.91,4.65-4,6.94-6a6.77,6.77,0,0,0,1-1.33c2.41-3.56,4.84-7.11,7.19-10.7a53.45,53.45,0,0,0,2.69-4.71c1.64-3.1,35.9-71.12,37.46-74A22.17,22.17,0,0,0,166.53,34a8.57,8.57,0,0,0-2.2-4.5,3.5,3.5,0,0,1-.44-1.19c.51-.13,1.05-.46,1.52-.37,6.1,1.16,26.13,4.66,26.68,4.79a3,3,0,0,1,2.49,2.49c.55,3.23,20,121.83,22,126.63a34.48,34.48,0,0,0,3.09,5.26c.62,1,1.39,1.92.6,3.08s-1.84.74-2.82.56c-2.78-.49-33.43-5.6-38.11-6.39a29.54,29.54,0,0,1-3.91-1.09.76.76,0,0,1-.45-1.1,2.08,2.08,0,0,1,.34-.58c3.19-3.82,1.48-20.73,1.15-24.67a7.81,7.81,0,0,0-2.86-5.19c-1.06-1-2.26-1.87-3.41-2.78a21.44,21.44,0,0,0-10.29-4.66c-2.9-.41-5.72-1.42-8.66-1.18Zm12.25-10.93a20.16,20.16,0,0,0,3,0,36.53,36.53,0,0,0,4.27-1,1.9,1.9,0,0,0,1.5-2,23.17,23.17,0,0,0-.13-2.36c-.17-1.68-3.48-25.57-4-29.83a18.4,18.4,0,0,0-.62-2.94c-.13-.47-1.13-.62-1.48-.3a3.18,3.18,0,0,0-.66.76c-2.29,4.28-14,28.2-15.14,30.67-.55,1.23-.49,1.61.48,2.35C154.56,110.41,158.49,112.82,163.5,112.23Zm661,36.41a67.06,67.06,0,0,1,4.36-24.57,112.43,112.43,0,0,1,5.21-11.8,46.72,46.72,0,0,1,6.53-9.5,67.15,67.15,0,0,1,35.94-21.94,99.81,99.81,0,0,1,13.35-2.4,51.15,51.15,0,0,1,21.49,2c4.54,1.51,8.93,3.24,12.77,6.17.54.41,1.06.07,1.08-.69,0-.45-.09-.9-.1-1.35A.6.6,0,0,1,926,84a4.41,4.41,0,0,1,2.49,2.19C930,89.55,942.94,119,944.38,121.6a13.37,13.37,0,0,1,1.77,7.43.69.69,0,0,1-.32.52.71.71,0,0,1-.63-.12,27.11,27.11,0,0,1-2.62-2.65c-1.61-2-3.21-4.1-4.65-6.27-1.78-2.68-4.28-4.66-6.49-6.9-3.34-3.37-7-6.48-10.58-9.55a57.63,57.63,0,0,0-13.41-8.59c-3.35-1.52-6.84-1.82-10.5-2.39-11.19-1.74-21.41,5.78-24,8.79-19.19,25.47-13.19,70.47,12.81,83.15a49.53,49.53,0,0,0,10.73,4.15,35.9,35.9,0,0,0,13.18.33,28.7,28.7,0,0,0,9.09-2.46c1.62-.8,16-8.7,21.41-24.41.27-.62.52-1.26.83-1.86a.64.64,0,0,1,.53-.27.87.87,0,0,1,.5.39,1,1,0,0,1,.19.64c-.61,3.33-.32,6.79-1.43,10a6,6,0,0,1-.24.64,70.53,70.53,0,0,1-6.7,11.76,64.38,64.38,0,0,1-4.72,5.77,52,52,0,0,1-11,8.45,65.2,65.2,0,0,1-17.48,7.34c-.65.18-1.28.45-1.92.66a24.84,24.84,0,0,1-7.31,1.4c-2.71.06-5.42.57-8.11.48a91.5,91.5,0,0,1-18.15-2.18c-6-1.42-11.07-4.55-15.87-8.21-2.07-1.58-4-3.29-6-5a44.29,44.29,0,0,1-10.67-14.78q-2.83-6.36-5.28-12.88a43.13,43.13,0,0,1-2.82-16.34Z"/><path d="M1010.15,182.45q8.37-1.27,16.75-2.57c1.23-.19,2.44-.47,3.65-.76a17.1,17.1,0,0,0,11.73-9.51,57.34,57.34,0,0,0,4.68-14.15,117.57,117.57,0,0,0,2.21-14.41,2.08,2.08,0,0,1,0-.34c.27-1.06.19-2.71,1.36-2.82,1.51-.14,1.69,1.57,2,2.73.56,2.42.91,4.89,1.48,7.31s1.21,4.58,1.85,6.87a26.2,26.2,0,0,1,1.27,4.56c.42,4.88,1.87,9.55,2.7,14.34.5,2.9,1,5.79,1.51,8.69a11.64,11.64,0,0,1,.13,1.69c.06,2.91-1.16,4.65-4,4.89-3.42.29-85.07,10.6-89.33,11.06-1.56.17-3.11.48-4.67.7a2.93,2.93,0,0,1-1-.07.74.74,0,0,1-.49-.35.73.73,0,0,1,.1-.62,13.73,13.73,0,0,1,1.4-1.47c5.07-4.43,6.49-10.13,5.85-16.58-.21-2.14-.28-4.29-.48-6.43-.36-3.94-7.93-73.17-8.91-77.11a42.43,42.43,0,0,0-5-12.58,33.63,33.63,0,0,0-6-7.29c-.84-.75-1.73-1.46-1.77-2.76a1.66,1.66,0,0,1,1.27-2l.12,0a23.66,23.66,0,0,1,2.66-.54c2.47-.3,43-5.08,46.81-5.5a12.36,12.36,0,0,1,1.7,0c2.22.06,3,1.3,2,3.39-.42.93-.84,1.85-1.29,2.77a26.36,26.36,0,0,0-1.88,6.1c-1.13,5,7.84,97.15,7.86,99.54a15.8,15.8,0,0,0,.09,1.7c.11,1,.56,1.34,1.58,1.39h2Zm-674-6.51a33.21,33.21,0,0,0,12.07-1.37,32.68,32.68,0,0,0,14.25-9.49,64.81,64.81,0,0,0,7.91-11.4,18.69,18.69,0,0,1,1.47-2.28c.24-.3.82-.62,1.1-.52a2,2,0,0,1,1.16,1,3.85,3.85,0,0,1,0,2c-2.08,8.46-4.22,16.91-6.31,25.36-.41,1.64-.69,3.31-1,5s-.74,3.55-1.17,5.3-.82,2.25-2.83,2.16-72.55-9.79-73.55-10c-2-.44-2.6-1.68-1.25-3,4.82-4.9,6.63-11.23,8.52-17.52,1-3.47,16.33-81.23,16.65-84.94.11-1.24.46-2.46.48-3.69,0-3.06,0-6.12-.12-9.17a11,11,0,0,0-1-3.22c-.41-1-1-2-1.41-3.09-.35-.81,0-1.29.93-1.26a26.54,26.54,0,0,1,2.7.25c2.58.34,5.16.65,7.72,1.07s5.33,1,8,1.52c.77.15,1.53.4,2.31.48,2.58.27,5.18.39,7.76.72,5.27.68,10.52,1.45,15.77,2.22a8.48,8.48,0,0,1,2.27.69,2.25,2.25,0,0,1,.78,3.64,9.11,9.11,0,0,1-.74.7,29.83,29.83,0,0,0-8.27,13.06c-1.24,3.75-20.57,87-21.73,91.41s0,4,3.17,4.39a33.85,33.85,0,0,0,4.36,0Zm-70.53,2.4c-2.6-.34-4.74-.57-6.86-.91-7.81-1.26-15.61-2.56-23.42-3.83-1.23-.2-2.48-.24-3.69-.52a1.92,1.92,0,0,1-1.1-1.09c-.11-.27.24-.92.56-1.12a15.87,15.87,0,0,0,4.24-4.35,13.17,13.17,0,0,0,2.33-5.89c.67-4.23,17.23-92.67,17.76-95.43a24.29,24.29,0,0,0-2.68-16.7c-.49-.91-1.73-1.86-.79-3,.77-.94,1.92-.25,2.88-.07,7.78,1.43,15.59,2.73,23.32,4.38,4,.85,8.08,1,12.06,1.88a43.89,43.89,0,0,1,4.92,1.24c.91.31,2.1.85,2.42,1.61.45,1-.93,1.66-1.58,2.36a27.63,27.63,0,0,0-6.63,13.55c-1.63,7.63-19.37,88.23-19.88,90.78a27.49,27.49,0,0,0,.42,14.08c.47,1.45.28,1.88-1.08,2.32a30.09,30.09,0,0,1-3.2.71Z"/></g></g></svg>