<svg xmlns="http://www.w3.org/2000/svg" viewBox="0 0 1317.63 145.72"><title>SteamModel</title><g id="Layer_2" data-name="Layer 2"><g id="Layer_1-2" data-name="Layer 1"><path d="M721,124.5a36.12,36.12,0,0,0,3.38,14.1c1,2,.19,3.33-1.87,3.68-6.18,1.08-12.42.57-18.63.62a8,8,0,0,1-1.35-.11c-1.58-.26-2-1.39-.92-2.69a26.67,26.67,0,0,0,5.76-13.56c.2-1.45.49-2.91.55-4.37.26-6.67.46-13.35.66-20,.06-2,0-4.08.07-6.12.87-21.18.75-42.36.7-63.55a36.35,36.35,0,0,0-3.66-15.06,17.16,17.16,0,0,0-4.82-6.07c-.19-.16-.22-.56-.24-.85a1.24,1.24,0,0,1,.6-.2c1.7-.06,3.4-.06,5.1-.14,1.92-.09,24.66-.11,33.26.14a25.49,25.49,0,0,1,3.36.39,3.41,3.41,0,0,1,2.79,2.23c.64,1.69,1.3,3.38,1.79,5.12,2.81,10,5.68,20,8.27,30.13,1,3.72,2,7.42,3.09,11.09q2.15,7,4.33,13.94c.37,1.18.72,2.37,1.13,3.54a.67.67,0,0,0,.52.35.7.7,0,0,0,.53-.36c1-2.88,2.16-5.72,2.94-8.66,2.14-8.1,4.1-16.25,6.15-24.37,1.47-5.82,3.06-11.61,4.43-17.45,1-4.29,1.78-8.64,2.62-13,.33-1.7.64-2.18,2.35-2.33,4.27-.38,43.94.72,46.37,1.23,1.42.3,1.53.88.49,1.75a15.92,15.92,0,0,0-5,7.56c-1,3.13-1.83,6.3-2.61,9.49-.26,1.08-1.12,91.33-1.24,94.65a19,19,0,0,0,4.57,13.61,3.84,3.84,0,0,1,1.29,2.31,1.63,1.63,0,0,1-1.28,1.92l-.15,0a13.78,13.78,0,0,1-1.7.07h-11.9a9.41,9.41,0,0,1-2-.14,18.79,18.79,0,0,0-3.69-.1c-6.67-.22-13.32.69-20,.23a9.86,9.86,0,0,1-2.31-.44,1.31,1.31,0,0,1-.91-1.87,22.32,22.32,0,0,1,1.07-2.49c2.16-4.14,2.7-8.6,2.68-13.17,0-12.58-.62-47.47-.71-52.34V67.45c0-.51-.15-1.37-.43-1.46-.79-.25-.75.62-.92,1.08-.84,2.34-1.61,4.71-2.45,7-2.58,7.26-15.28,46.08-17.74,53.14-1.49,4.27-3,8.53-4.42,12.83a3.58,3.58,0,0,1-3.71,2.82c-3.51,0-7,0-10.54.08a3.12,3.12,0,0,1-3.31-2.33c-.34-1-.76-1.9-1.06-2.87-4.25-13.51-17.62-59-18.72-65.64,0-.29-.27-.76-.46-.78-.72-.08-.55.57-.57,1-.07,1.13,0,2.27-.1,3.4-.32,6-1.67,45.07-1.43,48.78Z"/><path d="M461.64,140.17a12.93,12.93,0,0,1-2-.19,1,1,0,0,1-.77-1.19l0-.1a11.08,11.08,0,0,1,1-1.77,24.05,24.05,0,0,0,4-10.68c.39-2.71,2-88.23,1.92-93.66a21.23,21.23,0,0,0-.56-3.68q-.65-3.32-1.39-6.63c-.22-1-.51-2-.8-3-1.51-5.09-3.64-9.79-8.28-12.87-.2-.13-.22-.52-.33-.79a2.49,2.49,0,0,1,.64-.18c4.08,0,8.16-.12,12.24,0,9.06.15,18.1.9,27.16.68h.68a2.28,2.28,0,0,1,2.53,1.78c.43,1.52.86,3,1.25,4.58,1,4,8.44,30.78,11.2,40.23.67,2.28,1.41,4.54,2.16,6.8.08.25.42.44.67.6a1.66,1.66,0,0,0,.43-.41,17.62,17.62,0,0,0,.68-1.92c1.09-3.92,10.65-43.72,11.55-48.15.41-2,.8-2.44,2.88-2.67a43.71,43.71,0,0,1,4.41-.17c2,0,4.08,0,6.12.07,5,.09,10,0,14.94.41s10.19.19,15.29.33a31.39,31.39,0,0,1,4.35.59.56.56,0,0,1,.35,1,11.78,11.78,0,0,1-1,1,18.56,18.56,0,0,0-5.53,10.32c-.81,4.33-2.57,102.35-2.13,105.82.61,4.78,2,9.3,5.72,12.75a9.52,9.52,0,0,1,1.09,1.29.71.71,0,0,1-.34.94l-.17.06a23.53,23.53,0,0,1-2.37.14c-5.1,0-45.91-.79-47.81-1-1-.11-1.08-.35-.47-1.34a23.36,23.36,0,0,1,1.5-2.26c3-3.79,4.15-8.13,4.7-12.88.61-5.32.39-10.62.41-15.94,0-7.37.08-14.73.16-22.1,0-1.13.22-2.25.3-3.38a15.86,15.86,0,0,0,.15-3.38,78.91,78.91,0,0,1-.45-10.85,29.2,29.2,0,0,0-.19-3,2.57,2.57,0,0,0-.43-.82c-.2.19-.53.36-.59.59-.47,1.86-.89,3.74-1.34,5.61-3.07,12.75-13.76,50.89-15.61,57.31-1,3.47-1.86,7-2.82,10.47-.55,2-.86,2.22-2.78,2.29h-2.38c-2.63,0-3.29.07-4.29-3.27-3.42-11.38-14.24-47.6-16.27-54.32-.46-1.51-.8-3-1.22-4.57a.83.83,0,0,0-.46-.38c-.22.17-.51.4-.54.64-.18,1.57-.34,3.15-.42,4.72a21,21,0,0,0,0,3.73,35,35,0,0,1,0,7.43c-.32,3.94-.21,7.92-.25,11.89,0,4.65,0,9.3-.12,13.94a26,26,0,0,0,4.42,16.09c.22.39.58.7.83,1.07,1,1.43.54,2.28-1.26,2.47a27.94,27.94,0,0,1-3.06.1c-2.71,0-14.27-.17-17.33-.19Z"/><path d="M985,144.83c-3.84-.06-7.68-.36-11.52-.59-.29,0-.73-.22-.79-.42A1,1,0,0,1,973,143c1.44-1.27,2.93-2.49,4.38-3.76a16.21,16.21,0,0,0,5.37-10.31c2.37-5.84,1.16-86.79.61-91-.63-4.92-1.49-9.83-4.34-14.14a35.77,35.77,0,0,0-8.92-9.21c-.46-.33-.92-.66-1.34-1-.15-.13-.31-.48-.24-.57a1.2,1.2,0,0,1,.69-.54,79.65,79.65,0,0,1,8.44-.62c3.83.07,53.34.26,56.6.57,3.94.37,7.87.78,11.78,1.35,8.82,1.3,17.18,3.91,24.7,8.9A42.14,42.14,0,0,1,1081,32c.68.88,1.56,1.62,2.31,2.44a39.75,39.75,0,0,1,3.36,3.79,66,66,0,0,1,10.85,27.24,64.16,64.16,0,0,1,.94,14.54c-.11,1.92-.43,3.82-.66,5.73a68.89,68.89,0,0,1-3.92,15.77,81.09,81.09,0,0,1-7.91,15.37,2.71,2.71,0,0,1-.39.55c-2.31,2.13-4.16,4.72-6.59,6.73s-4.82,4.1-7.35,6a51.8,51.8,0,0,1-5.74,3.6c-2.07,1.16-4.24,2.13-6.34,3.23-5.78,3-12.05,4.61-18.35,6a83.47,83.47,0,0,1-20.54,2.09c-5.3-.24-29.1-.1-35.67-.2Zm38.82-18.92c0,1.31.56,1.78,1.91,1.85a9.29,9.29,0,0,0,1.36,0c1.8-.17,3.59-.37,5.39-.53a16.79,16.79,0,0,0,8.27-2.8,32.7,32.7,0,0,0,8.78-8.87,42.73,42.73,0,0,0,6.13-16c.69-3.78,1.07-7.6,1.55-11.42a84.55,84.55,0,0,0,.16-13.21c-.11-3.49-.74-7-1.06-10.44a62.09,62.09,0,0,0-6.08-22.11,30.93,30.93,0,0,0-9.53-10.86c-3.18-2.4-6.95-3.21-10.74-3.91s-4.67-.14-4.76,3.86c-.13,4.94-1.44,92.46-1.39,94.5Z"/><path d="M842,77.75c.46-4.25.75-8.66,1.45-13a65.79,65.79,0,0,1,23.43-42.08A46.11,46.11,0,0,1,886.5,13a49.94,49.94,0,0,1,12.44-1.49c4.41.1,8.83-.12,13.2.8,3.65.77,7.38,1.24,11,2.22a43.1,43.1,0,0,1,14.68,7.53,76.76,76.76,0,0,1,13.42,13.39,41.25,41.25,0,0,1,3.89,6,67.34,67.34,0,0,1,6.16,15c.64,2.4,1.2,4.82,1.84,7.22,1,3.89.48,7.9,1.18,11.8-1,4.57.07,9.28-1,13.85-.47,2-.41,4.06-.82,6a39.71,39.71,0,0,1-1.87,6.85,71,71,0,0,1-7.93,15c-3.1,4.33-6.08,8.73-9.9,12.45a43.84,43.84,0,0,1-16.28,10.2c-6.43,2.22-13,3.93-19.9,3.8-3.25.75-6.53.1-9.79.09-5.49,0-10.71-1.61-15.93-3.15a42.5,42.5,0,0,1-17.39-10.25,70.75,70.75,0,0,1-8.24-9A64.85,64.85,0,0,1,845.84,103a59.52,59.52,0,0,1-3.35-19.65A53.26,53.26,0,0,0,842,77.75Zm81.67,5.61h.14c-.31-5.76-.35-11.54-1-17.26a102.93,102.93,0,0,0-3.54-17.94A36.19,36.19,0,0,0,912.4,35a23.48,23.48,0,0,0-5.9-5,9.57,9.57,0,0,0-9.1-.44,13.46,13.46,0,0,0-5,3.5,33.53,33.53,0,0,0-6.22,10.43c-2.29,6-3.18,12.25-4.47,18.44a19.42,19.42,0,0,0-.14,4.06c0,1.46.16,2.92.14,4.38s-.25,3.16-.2,4.74c.12,3.72.42,7.44.53,11.17.17,5.53-.28,11.07.75,16.58.77,4.11,1.36,8.25,2.86,12.19,1.88,4.94,4.8,9,9.79,11.14a17.86,17.86,0,0,0,4.41,1.69,19.85,19.85,0,0,0,12.74-2.59,6.5,6.5,0,0,0,1.82-1.5,30.52,30.52,0,0,0,5.63-9.22A52,52,0,0,0,922.89,99a23.22,23.22,0,0,1,.2-2.36c.16-1.68.43-3.36.48-5,.13-2.83.07-5.56.07-8.26Z"/><path d="M92.13,4a26.87,26.87,0,0,0,8.06.92,7.76,7.76,0,0,0,4.67-1.77c1.38-1,1.68-.87,2.88.37,1.79,1.85,2.54,4.24,3.22,6.62a12.42,12.42,0,0,0,.65,2.21c.74,1.51,1.28,3.12,2,4.66a8.17,8.17,0,0,0,1.48,2.62c2.19,2.08,3.45,4.75,5,7.23.36.57.6,1.24,1,1.78a17.75,17.75,0,0,1,2.09,2.58,22.74,22.74,0,0,1,.74,3.27c.29,1,.83,1.85,1.17,2.81a11.44,11.44,0,0,1,.56,2.26c.1.7-.52,1.12-1.06.74a14,14,0,0,1-2.12-1.67,94.63,94.63,0,0,0-11.18-9.87c-1.09-.81-2.15-1.68-3.29-2.4a77,77,0,0,0-20.29-9.25,108.76,108.76,0,0,0-17-3.18c-3.58-.41-35.58-.82-33.58,16.84a11.16,11.16,0,0,0,5,7.34A29.42,29.42,0,0,0,50,42c2.26.69,4.65,1,7,1.5,4.2,1,8.47,1.4,12.72,2a187.81,187.81,0,0,1,21.24,4.55c2.3.61,4.65,1,6.9,1.78,5.39,1.74,10.8,3.45,15.65,6.47a26.44,26.44,0,0,1,6.05,5.39c1.69,2,3.78,3.67,4.84,6.07,6.75,15.29,2.75,26.38,1.75,29.11a35.27,35.27,0,0,1-2.53,4.79c-14.47,31.39-62.47,31.06-65.21,31a73.34,73.34,0,0,1-24-4.16,38.58,38.58,0,0,1-3.92-2A59.33,59.33,0,0,0,25,125.83a9.11,9.11,0,0,0-7.54.3C14.25,127.69.7,95.06,0,93.06a.64.64,0,0,1,.25-.57c.28-.11.77-.2.9-.06a38.79,38.79,0,0,1,2.58,3.13,34.69,34.69,0,0,0,6.94,7.35c2.78,2.13,5.21,4.7,8.26,6.5,2.73,1.61,5.35,3.4,8.13,4.91,3.07,1.67,6.25,3.14,9.41,4.65a8.31,8.31,0,0,0,2.25.68c1.79.29,3.58.56,5.38.69,4,.28,7.93.85,11.86.62,7-.41,14-.54,20.73-3.09a40.06,40.06,0,0,0,13.1-7.66,34.51,34.51,0,0,0,4.06-5,3.72,3.72,0,0,0,.62-1.9,22.56,22.56,0,0,0-1.36-10c-1.15-2.87-3.43-4.74-5.87-6.43-3.89-2.7-8.35-4-12.91-5-7.63-1.68-15.28-3.23-22.88-5a71.06,71.06,0,0,1-11-3.51C34.75,71,28.92,68.78,23.89,65a48,48,0,0,1-8-7.82,42.94,42.94,0,0,1-2.75-3.86c-7-12.22-.75-26.61,3.5-31.81a47.82,47.82,0,0,1,13.8-11.35A80,80,0,0,1,92.13,4Z"/><path d="M1176.84,11.67c1.36,0,2.72.06,4.08,0a4.32,4.32,0,0,1,4.59,3.23c1.12,3.21,2.44,6.34,3.52,9.56,2,5.81,4.24,11.47,6.73,17.06,1.29,2.89,2.49,5.82,3.64,8.77a27.42,27.42,0,0,1,1,3.6.84.84,0,0,1-.16.6,1.38,1.38,0,0,1-.89-.17c-1-.92-2-1.87-2.89-2.87-1.83-2-3.59-4.08-5.41-6.1-3.68-4.07-8.19-7.1-12.65-10.23A46.79,46.79,0,0,0,1156,26.86c-1.15-.12-1.68.29-1.74,1.5-.07,1.47-.08,3-.08,4.42v30.6c0,3.59.23,3.84,3.87,3.83a54.69,54.69,0,0,0,8.81-.43,14.22,14.22,0,0,0,9.24-5.72c.55-.72,1-1.52,1.57-2.22a2.12,2.12,0,0,1,3.48,0,7.36,7.36,0,0,1,1.06,1.73q.83,1.86,1.53,3.78c2.66,7.23,5.28,14.47,8,21.69.83,2.23,1.79,4.4,2.67,6.61a10.05,10.05,0,0,1,.58,1.93,1.09,1.09,0,0,1-.32.9,1,1,0,0,1-.91,0c-.8-.62-1.54-1.33-2.29-2-1.6-1.43-3.15-2.94-4.81-4.29a38.19,38.19,0,0,0-16.8-7.7,51.7,51.7,0,0,0-12.13-1.18c-.91,0-1.81.09-2.71.18a1.35,1.35,0,0,0-1.28,1.34c-.07.68-.09,1.36-.1,2,0,3.62-1.56,48.41-1.72,49.86-.13,1.22.18,1.65,1.46,1.68a23,23,0,0,0,2.71-.1c1.91-.17,3.82-.37,5.73-.58a30.17,30.17,0,0,0,3-.42,51.52,51.52,0,0,0,21.08-9.82,115.47,115.47,0,0,0,16.24-15.9c.74-.86,1.53-1.67,2.35-2.45.2-.19.59-.18.89-.26a4.39,4.39,0,0,1,.21.94,5.66,5.66,0,0,1-1.24,3.45,52,52,0,0,0-3.17,4.39c-3.78,6.32-7.54,12.65-11.18,19-1.85,3.24-3.49,6.61-5.11,10a3,3,0,0,1-3.1,2c-9.85-.3-63.58,0-67.89-.08a23.25,23.25,0,0,1-3.71-.3c-1.82-.32-1.91-.59-1-2.18a12.88,12.88,0,0,1,1-1.75c2.79-3.5,3.77-7.67,4.47-12,.57-3.47,1.6-87.29,1.42-99.87a19.7,19.7,0,0,0-6.09-14.3c-.33-.32-.69-.59-1-.93-.64-.72-1.76-1.1-1.76-2.31a25.41,25.41,0,0,1,2.93-.42c2.05,0,56,.14,66.65.14Z"/><path d="M355.74,139c-2.59-.2-23.21-1.22-24.3-1.49a.6.6,0,0,1-.25-1.06c.86-.9,1.76-1.76,2.67-2.61a42.14,42.14,0,0,0,9.7-13,12.73,12.73,0,0,0,.73-1.53c6.84-10.22,25.19-95.56,25.84-98.31a9.26,9.26,0,0,0-1.27-7.73A25.46,25.46,0,0,0,363,6.78c-.36-.28-.73-.54-1.06-.85-.82-.76-.57-1.68.57-2a6.29,6.29,0,0,1,1.66-.31c3.39-.06,28.19.51,35.67.52,5.37,0,4.5.54,5.42,4.24,1.67,6.71,36.17,113.26,36.74,114.85,1.7,4.73,5,8.28,8.56,11.65,1.31,1.25,2.72,2.39,4,3.63a.91.91,0,0,1-.55,1.54,9.13,9.13,0,0,1-1.69.15c-4-.11-42.17-.68-44.07-.84s-2.55-1.24-1.89-3.06a19.83,19.83,0,0,0-.09-13.3c-1.75-5.38-3.52-10.75-5.18-16.16a10.48,10.48,0,0,0-3.38-4.89c-4.27-3.8-9.45-4.65-14.79-5.12a30.41,30.41,0,0,0-10.74,1.37,10.56,10.56,0,0,0-4.69,2.62c-1.29,1.26-2.76,2.34-4.1,3.55a8.1,8.1,0,0,0-2.37,4c-.89,3.29-1.36,6.64-2,10-.75,3.94-.1,7.64.84,11.39a23.59,23.59,0,0,0,3.3,7c.64,1,.25,1.81-.94,1.86-2.15.09-4.3,0-6.45,0ZM378,85.79c1.45-.21,2.9-.39,4.34-.62a26.21,26.21,0,0,0,7.83-3.11c2.19-1.15,2.33-1.62,1.59-4.1-.06-.22-.14-.43-.21-.65l-5.62-17.43c-.48-1.51-.84-3.06-1.34-4.56-1-3.11-2.13-6.2-3.22-9.29a29.67,29.67,0,0,0-1.15-2.82,1.11,1.11,0,0,0-.69-.61c-.19,0-.55.33-.64.58a25.31,25.31,0,0,0-.76,2.6c-.76,3.19-1.42,6.41-2.27,9.58-1.79,6.67-3.67,13.31-5.52,20-.51,1.85-1.08,3.7-1.51,5.57s-.1,2.62,1.79,3.44A22.74,22.74,0,0,0,378,85.8Z"/><path d="M298.13,55.5a1.36,1.36,0,0,0,1.21,1.5h.25c.68,0,16-2,18.69-5.69a8.79,8.79,0,0,1,.63-.8,1,1,0,0,1,1.41-.09l.09.09a9.75,9.75,0,0,1,1.81,2.39c.83,1.74,12,30,12.84,32.15a1.13,1.13,0,0,1-.15.93c-.35.44-.81.25-1.18,0a19.75,19.75,0,0,1-2.56-2.22c-2.58-3-5.81-5.37-8.59-8.18a13.89,13.89,0,0,0-5.43-3.35c-5.66-2-11.52-2.25-17.44-1.91-1.43.08-1.76.45-1.84,1.91-.3,5.53-2.11,47.57-2.49,51.16a1.37,1.37,0,0,0,1,1.68l.24,0a15.23,15.23,0,0,0,5.69.25,40.64,40.64,0,0,0,8.47-2.37,108.76,108.76,0,0,0,18.53-10.6c2.78-2,5.45-4,8.2-6a11,11,0,0,1,2.09-1.06c.14-.06.45.11.58.26a1.12,1.12,0,0,1,.15.6.61.61,0,0,1-.12.31l-13.05,22.18c-1.49,2.54-3.08,5-4.45,7.62a3.22,3.22,0,0,1-3.28,1.85c-4.08,0-65.45-.93-66.9-1.16a3.32,3.32,0,0,1-1.45-.79,1.31,1.31,0,0,1-.15-1.85l.15-.15c1.73-1.63,3.46-3.25,5.15-4.91,2.84-2.78,4.14-6.33,5.43-10,3.5-10.18,3.5-89.18.64-98.18a30,30,0,0,0-5.55-14,13.34,13.34,0,0,0-5.33-4.12c-.16-.07-.25-.33-.37-.5.16-.11.33-.31.49-.32,3.17-.08,62,.69,68,.76h1.7C322.64,2.82,335.93,35.53,337,38c.48,1.15.93,2.31,1.34,3.48.09.27-.07.63-.11.94-.41-.07-.91,0-1.2-.23a8,8,0,0,1-1.69-1.65A62.5,62.5,0,0,0,328.47,33c-2.24-2.23-4.37-4.59-6.75-6.66a29.31,29.31,0,0,0-5.86-4,66,66,0,0,0-8.77-3.64,24.66,24.66,0,0,0-5.67-.94c-1.8-.16-2.12.21-2.16,2.14"/><path d="M235.31,1.42c2.19,0,2.53.23,3.3,2.18.08.21.14.43.21.65,3.14,9.71,7.1,19.1,11.08,28.48a35.53,35.53,0,0,1,1.34,4.55.63.63,0,0,1-.26.56,1.5,1.5,0,0,1-.92,0c-.79-.81-1.48-1.71-2.24-2.55-3.78-4.23-20.69-23.23-40.6-22.8a14,14,0,0,0-2.38,0c-1,0-1.5.38-1.54,1.4-.08,2.13-.76,95.57-.7,105.54,0,5.52,1,10.82,4.55,15.33a2.48,2.48,0,0,1,.2.27c.49.85.12,1.62-.91,1.63-2.94,0-5.89,0-8.83-.07-1.58,0-3.16-.28-4.74-.29-10.43-.07-20.85-.09-31.28-.16a19.89,19.89,0,0,1-3.36-.29,1.11,1.11,0,0,1-.59-1.86c.64-.79,1.37-1.51,2.05-2.26a14.19,14.19,0,0,0,3.62-6.43c5.82-9.18,2-107,1.94-109.51-.06-3.3,0-3.34-3.43-3.81a42.48,42.48,0,0,0-8.81-.09c-2.81.2-5.58.82-8.37,1.29a4.25,4.25,0,0,0-1.24.47c-1.2.63-2.37,1.33-3.58,2a34.27,34.27,0,0,0-8.57,6.58c-1.53,1.52-3.07,3-4.66,4.47a1.45,1.45,0,0,1-1.19.1c-.2-.06-.39-.6-.34-.87a10.94,10.94,0,0,1,.63-2.26c1.22-2.92,2.59-5.77,3.69-8.73a41.91,41.91,0,0,0,2.38-8.11,18.14,18.14,0,0,1,.62-2.64C133.57.29,133.94,0,137.84,0c1.15,0,92.48,1.39,97.47,1.42Z"/><path d="M1208.72,145.64a3.46,3.46,0,0,1-1,0,2.86,2.86,0,0,1-1.41-.7c-.41-.57.16-1,.59-1.38.84-.76,1.66-1.54,2.5-2.3a20.76,20.76,0,0,0,5.83-9.43,36.2,36.2,0,0,0,.84-4.31,4.39,4.39,0,0,0,0-.68c.28-11.32.76-88.35.67-92-.15-6.81-2.8-12.77-6.57-18.28a22.07,22.07,0,0,0-3.17-3c-.35-.33-1.3-.36-.86-1.1a1.88,1.88,0,0,1,1.48-.64c4.28.24,8.56-.34,12.87.25,3.34.46,6.79.16,10.19.18l31.62.14a8.17,8.17,0,0,1,1.7.07c1.27.28,2.51.65,3.77,1-.92.82-1.84,1.65-2.77,2.45a21.55,21.55,0,0,0-6.58,9.73,37.08,37.08,0,0,0-1.94,11c-.07,3.85-1.53,81.43-1.52,92.42,0,3.07.45,3.56,3.5,3.63a33.29,33.29,0,0,0,11-1.79c1.29-.42,2.55-.94,3.84-1.38,4.64-1.57,8.8-4.06,13-6.55s7.73-6.22,11.79-9.08c3.41-2.4,6.56-5.18,9.73-7.89a21.41,21.41,0,0,1,4.22-2.81,35.24,35.24,0,0,0,3.11-2,3.82,3.82,0,0,1,1.17-.66,1.52,1.52,0,0,1,1.21.22,1.19,1.19,0,0,1-.1,1.13,19.35,19.35,0,0,1-1.94,1.9c-1.34,1.22-2.71,2.39-4,3.63q-8.36,7.65-16.66,15.49a46.21,46.21,0,0,0-3.45,3.73c-4.24,5-8.71,9.82-12.6,15.13-3,4.09-3.07,4-8.19,3.94-8.46,0-59.46,0-61.87-.06Z"/><path d="M651.13,78.34c-.31,3.15-.6,6.29-1,9.44-.1.92-.51,1.2-1.39,1-2.2-.51-4.4-1-6.58-1.66a31.61,31.61,0,0,0-7.68-1.3c-5.19-.14-9,2.13-11.14,6.8-2.68,5.88-2.48,11.81,1.41,17.07,3.75,5.08,8.87,7.57,15.42,6.33a25.76,25.76,0,0,0,5.83-1.74,60.59,60.59,0,0,0,18.3-12.22,164.18,164.18,0,0,0,12.26-13.6,17.41,17.41,0,0,1,2.38-2.4,1.32,1.32,0,0,1,1.24,0,1.27,1.27,0,0,1,.39,1.15,11.48,11.48,0,0,1-1.22,2.41c-1.67,2.56-24.58,38.76-25.42,40.09a5.77,5.77,0,0,1-2,2.27c-1,.47-1.71-.82-2.52-1.34a10.25,10.25,0,0,0-7.89-1.1,76.65,76.65,0,0,1-17.58,1.16,32.66,32.66,0,0,1-22.48-9c-5.35-5.07-8.28-11.23-7.9-18.78.47-9.15,4.6-16.41,11.36-22.34.59-.52,1.27-1,1.88-1.46,1.08-.91,1-1,.08-2.12a44.08,44.08,0,0,1-4.3-5.22,19.62,19.62,0,0,1-3.06-14.25c.25-1.44.06-3,.49-4.37,1.91-6.07,5-11.41,10.31-15.19a42.27,42.27,0,0,1,26.48-8.06c3,.09,6.11-.15,9.12.7a24.24,24.24,0,0,1,5.7,2.15c.39.23.8.43,1.21.63,2.37,1.13,3.15.89,4.77-1.4.63-.89.74-.89,1.47-.23a8.06,8.06,0,0,1,2.44,4c1.7,6.11,3.41,12.21,5.2,18.29.74,2.49,1.7,4.91,2.56,7.36a11.2,11.2,0,0,1,.5,1.26c.31,1.43.6,2.87.85,4.31s1.71,2.31,1.64,3.86v.64c-.28-.06-.65,0-.84-.2a14.29,14.29,0,0,1-1.87-2C665.82,64.17,662.2,59,658.4,53.91a26,26,0,0,0-16.14-10.5,15.13,15.13,0,0,0-6.72.06,12.46,12.46,0,0,0-8,6.37c-2.3,4.11-3.34,8.37-1.67,13a12.71,12.71,0,0,0,9.2,8.29,16.48,16.48,0,0,0,9,.25c.75-.23,1.49-.51,2.24-.76s1.71-.61,2.59-.83a1.44,1.44,0,0,1,1.9,1.37,24,24,0,0,1,.12,2.71v4.42Z"/></g></g></svg>