<svg xmlns="http://www.w3.org/2000/svg" viewBox="0 0 1208.3 191.32"><title>WHG</title><g id="Layer_2" data-name="Layer 2"><g id="Layer_1-2" data-name="Layer 1"><path d="M967.19,158.72c-5,.2-10.91-1.8-16.49-5.08a4.48,4.48,0,0,1-1-.86c-3.74-4.19-6.93-8.65-7.82-14.42-.56-3.57-1.24-7.14-2.06-10.66a43.45,43.45,0,0,0-4-10.81,19.25,19.25,0,0,0-5.36-6.06,8,8,0,0,0-1.78-1c-1.33-.57-2.2-.18-2.47,1.32-.49,2.67-3,24.47-3.06,27.63a18.45,18.45,0,0,0,2.65,10.73,1.52,1.52,0,0,1,0,1.19c-.06.18-.61.28-.91.24-4.38-.53-8.75-1.14-13.13-1.64-5.17-.59-10.35-1.09-15.53-1.64-1.8-.19-3.59-.46-5.39-.66L877,145.51a.64.64,0,0,1-.33-1.06,15.1,15.1,0,0,1,1.77-1.58,22.13,22.13,0,0,0,9-14c.89-4.08,11.33-88.61,11.52-90.52a18.72,18.72,0,0,0-2.3-10.48,33,33,0,0,0-6.45-8.28c-.24-.24-.55-.41-.79-.64-1.31-1.22-2.6-2.45-3.9-3.68,1.85-.94,3.67-.12,5.51.06,5.4.54,10.81,1,16.21,1.61,4.61.51,9.2,1.18,13.8,1.71,3,.35,6.09.53,9.12.89,4.94.58,9.88,1.15,14.8,1.88,4.14.61,8.26,1.38,12.36,2.19a71.81,71.81,0,0,1,18,5.91A41.17,41.17,0,0,1,991,42.74a23.24,23.24,0,0,1,2.23,4.19c1.17,2.7,2.38,5.4,3.28,8.2,3.15,9.81,2.7,19.31-2.09,28.65-5.33,10.38-13.91,16.76-24.41,21-1.47.59-3,1.14-4.4,1.79a1.72,1.72,0,0,0-.75,1,1.35,1.35,0,0,0,.65.66c2.71,1.1,4.67,3.13,6.69,5.13,2.58,2.56,4,5.75,5.21,9.06.81,2.23,1.34,4.56,2,6.84s1.38,4.55,2.14,6.8a8.89,8.89,0,0,0,1.21,2.41c2.13,2.88,5.12,3.8,8.73,2.57a21.5,21.5,0,0,0,9.51-6.33c1.92-2.23,3.72-4.56,5.61-6.82a10.62,10.62,0,0,1,1.73-1.59,4.82,4.82,0,0,1,1.21-.49,4.44,4.44,0,0,1,.12,1.6,46.25,46.25,0,0,1-10.92,18.19,41.46,41.46,0,0,1-18.69,11.27c-6.69,1.93-6.79,1.74-12.88,1.85ZM934.28,91.07a17,17,0,0,0,1.87-.09c6.85-.42,11.91-3.45,15.29-9.64A51.14,51.14,0,0,0,956,68.62a32.09,32.09,0,0,0,.75-6.72,47.27,47.27,0,0,0-.5-5.39A23.88,23.88,0,0,0,950.46,43c-2.74-3.25-6.45-4.89-10.38-6.09-1.42-.43-2.57-.05-2.85,1.92s-6.76,42.63-7.45,47.89c-.62,4.34-.5,4.36,4.5,4.34Z"/><path d="M279.28,79.14c5.07-1.27,15-6,13.47-11.73-.22-.6-6.4-31.87-6.6-33.21a11.29,11.29,0,0,0-3.56-6.78c-1.4-1.3-3-2.37-4.5-3.58a5.69,5.69,0,0,1-.79-1,5.57,5.57,0,0,1,1.19-.5c2.67-.45,47.17-6.12,51.44-6.61a28.12,28.12,0,0,1,3.39-.07.66.66,0,0,1,.5.34.73.73,0,0,1-.16.6,5.14,5.14,0,0,1-.78.64,14.44,14.44,0,0,0-4.5,5.86c-2.23,5.09-3.28,10.24-2.14,15.86,1,5.09,12.76,80.66,13.8,85.4a30.47,30.47,0,0,0,7.07,13.39,28.54,28.54,0,0,0,4.17,3.39c.27.21.55.41.8.63a.62.62,0,0,1-.16,1.07c-1.1.26-48.87,5.48-50.56,5.51-1,0-1.28-.52-.73-1.28a23.47,23.47,0,0,0,4-16.05c-.71-3.66-5.55-29.35-5.56-29.79,0-2.26-1.48-3.51-3.26-4.39-3.15-1.57-6.35-2.91-10-3a16.16,16.16,0,0,0-7.22,1.62,21.69,21.69,0,0,0-6.3,4.54,6.19,6.19,0,0,0-1.68,5.61c.24,1.68,4.45,24.37,6.31,34a9.45,9.45,0,0,0,2.65,5c1.37,1.35,2.72,2.73,4.07,4.1.39.39,1,.86.56,1.41a2.3,2.3,0,0,1-1.43.69c-2,.29-42,5.55-48.1,6.34-.9.12-1.78.34-2.68.45a3.09,3.09,0,0,1-1-.2c.08-.3.07-.69.26-.89q1.28-1.36,2.65-2.64a19.83,19.83,0,0,0,5.18-7.87,8.69,8.69,0,0,0,.34-5c-1.35-6.31-18.75-91.1-19.35-93C218,41.29,213.8,36.58,207,34.45a13.4,13.4,0,0,1-2.06-1c.39-1.19,3.47-1.23,4.26-1.38,4.44-.83,47-7,49.93-7.37a24.87,24.87,0,0,1,2.7-.19.56.56,0,0,1,.51.92c-1.12,1.7-2.38,3.32-2.83,5.38a23.36,23.36,0,0,0-.66,9c.87,5.13,5.78,34,6.24,36.1C266.28,80.14,275.28,80.14,279.28,79.14Z"/><path d="M98.42,54.38a2.44,2.44,0,0,1,2-2.73c1.53-.37,3.05-.82,4.6-1.13,2.88-.57,5.79-1,8.65-1.63,1.63-.37,2.77-.28,3.66,1.37,1.07,2,2.49,3.78,3.64,5.73q6.12,10.4,13.08,20.26c2,2.87,3.88,5.86,5.9,8.73,4.75,6.77,9.55,13.5,14.32,20.25,1.31,1.85,2.6,3.71,3.93,5.54a1.07,1.07,0,0,0,.86.36c.23,0,.41-.42.59-.67a.6.6,0,0,0,.06-.33c0-7.46,3.54-61.29-4.43-66-.58-.34-3-1-.94-2.67.44-.35,28.07-5.15,29-5.18a2.17,2.17,0,0,1,1.51.6c.54.59-.18,1-.53,1.37q-1.51,1.61-3.08,3.17A21.16,21.16,0,0,0,176,50c-1.2,3.68-1.86,112.87-1.86,113.44,0,2.56-.18,3.06-3,3.37-3.26.36-9.93,1.67-10,1.68-4.42.46-4.44.63-7.12-3s-42.24-56.47-43.76-58.4a3.87,3.87,0,0,0-1.31-1c-.17-.09-.76.16-.78.3-.15,1.12-2,64.23-2.19,67.17-.17,2.72-1.34,4.17-4.06,4.59a98.65,98.65,0,0,0-13.31,2.6,1.63,1.63,0,0,1-2-.85c-3.54-6.18-46-77.88-49.55-84.15a11.58,11.58,0,0,0-1.67-2.11q-3.14-3.34-6.33-6.61C23.55,81.41,17.45,76.62,9.57,74.67c-2.08-.51-4.23-.72-6.34-1.13C2.14,73.33,1.08,73,0,72.68a4.82,4.82,0,0,1,3.28-1.54C5.06,70.84,63.44,59.21,64,59.23a3.1,3.1,0,0,1,1.9.42c.62.6-.05,1.24-.51,1.71a3.37,3.37,0,0,0-.89,2.49c0,2.38-.08,4.76.05,7.14a7.43,7.43,0,0,0,.88,2.88c1.4,2.72,25.75,46,28.29,50.68a2.58,2.58,0,0,0,.92.95,1,1,0,0,0,.86-.13c.79-1.23,3-65.55,2.93-71Z"/><path d="M660.39,72.61c0,3.08-.12,6.49,0,9.88a70.89,70.89,0,0,0,3.15,18.65,45.5,45.5,0,0,0,5.52,11.25,13.35,13.35,0,0,0,6.35,4.93,30.38,30.38,0,0,0,5.54,1.59,10.56,10.56,0,0,0,7.18-1.45,15.87,15.87,0,0,0,6.59-7.58,56.71,56.71,0,0,0,4.46-17,158.88,158.88,0,0,0,.66-16.28,20.65,20.65,0,0,0-.16-2.7,1.08,1.08,0,0,0-1.15-1h0a5.35,5.35,0,0,0-1.34.19A36,36,0,0,0,686.28,78a20.29,20.29,0,0,0-2.78,2.47c-1.53,1.51-3,3.1-4.53,4.6a1.31,1.31,0,0,1-1.17.3c-.28-.18-.39-.77-.41-1.19-.06-1.12.47-18.5.58-21s.88-3.21,3.36-3.29,46.6,1.7,52.94,2c3.72.16,3.89.36,3.34,3.94q-.56,3.69-.88,7.41c-.34,4.06-.53,8.13-.89,12.18a75.9,75.9,0,0,1-2.31,14.76,44.52,44.52,0,0,1-25,27.11,67.62,67.62,0,0,1-62.86-6.59,64.38,64.38,0,0,1-12.54-12.37,62.68,62.68,0,0,1-8.65-15.73,45.57,45.57,0,0,1-3.06-14.9c-.12-2.48-.64-5-.46-7.43a88.51,88.51,0,0,1,3-19.05,95.28,95.28,0,0,1,4.62-12.77,68.62,68.62,0,0,1,15.39-21A56.29,56.29,0,0,1,660.15,6.33a46.85,46.85,0,0,1,19.39-4.45c3.29,0,6.58,0,9.86.1,9.75.36,18.73,3,26.6,9a10.06,10.06,0,0,0,1.42.92c2.46,1.27,4.87,1.77,7.27-.24a1.46,1.46,0,0,1,2.49.56,17.22,17.22,0,0,1,1.21,4.2c.65,4.93,4.63,34.68,5.25,39a.88.88,0,0,1-.47.72,1.06,1.06,0,0,1-.86-.33c-1.72-2-6.47-13.27-8.06-16.39a56.69,56.69,0,0,0-8.06-11.73,35.8,35.8,0,0,0-14.49-9.76A37.66,37.66,0,0,0,684,15.77a17.82,17.82,0,0,0-14,8.51,47.32,47.32,0,0,0-4.88,10.44,85.75,85.75,0,0,0-3.44,14.86,126.4,126.4,0,0,0-1.29,23Z"/><path d="M599.61,0h14.28a14.79,14.79,0,0,1,2,.16.68.68,0,0,1,.42.45.69.69,0,0,1-.15.59c-4.27,3.43-6.52,8.12-7.82,13.24a50.43,50.43,0,0,0-1.45,17.86c.5,4.64,3,73.28,3.35,78.7a18.48,18.48,0,0,0,4.43,11.15,32.77,32.77,0,0,0,6.64,6.27,9.72,9.72,0,0,1,1.56,1.28c.1.1-.07.74-.19.76a14.14,14.14,0,0,1-2.35.25c-3.51,0-7,0-10.54.1-4.19.08-8.37.23-12.56.34h-3.4a4.29,4.29,0,0,1-2.83-1c-1.23-1-2.49-2-3.69-3q-2.58-2.21-5.09-4.51a57.15,57.15,0,0,1-9.16-10.9c-3.66-5.59-7.19-11.27-10.71-16.94q-8.06-13-16-26.05c-2.58-4.26-5-8.64-7.45-13-.39-.68-.81-1.36-1.26-2a.7.7,0,0,0-.59-.21.59.59,0,0,0-.37.43,25.7,25.7,0,0,0,.07,2.72c.57,5.85,3.18,46.83,3.4,50.78A45.05,45.05,0,0,0,543.79,123a25,25,0,0,0,4.53,6.75,9,9,0,0,1,1.08,1.3c.08.14-.15.55-.33.74s-.43.1-.65.11c-5.77.09-11.5,1-17.29.76-2.15-.09-4.3.1-6.46.1a39.44,39.44,0,0,1-4.07-.14.63.63,0,0,1-.55-1,5.91,5.91,0,0,1,.88-1.44c9.35-22,1.06-100.12.51-103a22.44,22.44,0,0,0-2.39-6,79.88,79.88,0,0,0-4.19-7,24.91,24.91,0,0,0-11.42-9.31c-.63-.26-1.27-.48-1.9-.74s-1.47-.41-1.22-1.28S501.38,2.07,502,2c3-.07,37.72-1,38.7-1.19,2.42-.57,4.07.24,5.49,2.27,3.43,4.92,45.69,67,46,67.36a21,21,0,0,0,2.49,3,43.48,43.48,0,0,0,.55-8.35c-.18-4.07-1.69-42.58-2.26-44.68-.82-3.06-1.44-6.18-2.35-9.21a15.92,15.92,0,0,0-7.12-9.59,2.61,2.61,0,0,1-.74-.67,1.07,1.07,0,0,1-.08-.63c0-.07.16-.17.25-.18.9-.07,1.8-.17,2.7-.17C590.28,0,599.61,0,599.61,0Z"/><path d="M392.28,127.25c.25,2.24.44,4.5.77,6.73a11.59,11.59,0,0,0,.91,3.24c1.09,2.29.29,2.14-1.57,2.29-7.33.61-14.65,1.27-22,1.9a17.88,17.88,0,0,1-3.39.1c-1-.1-1.9.86-2.81,0,.67-.73,1.3-1.51,2-2.18a49.39,49.39,0,0,0,13.76-23c1.38-4.89,17.49-80.15,19.49-88.39a6.39,6.39,0,0,0-1.06-5.77,57.46,57.46,0,0,0-3.43-4.63,20.34,20.34,0,0,0-13-6.6,5.64,5.64,0,0,1-1.27-.38s-.07-.2-.06-.3,0-.24.11-.27a1.65,1.65,0,0,1,.61-.25c5.29-.52,45.38-4,48.32-4.21h2a2.76,2.76,0,0,1,2.91,1.82c3.41,7,59,110.67,64.36,116a40.15,40.15,0,0,0,10.47,7.47,19.89,19.89,0,0,1,1.84.87c.89.57,2.38,0,2.81,1.41-1.1.11-2.2.27-3.31.32-7.69.32-48.48,2.3-52.54,2.59a47,47,0,0,1-4.75.05,1.07,1.07,0,0,1-1.06-1.41c1-5.3-.51-10.09-2.91-14.69-1.62-3.11-3.35-6.17-5-9.25a9.22,9.22,0,0,0-3.58-3.53,45.36,45.36,0,0,0-17-5.64,31,31,0,0,0-8.77-.25,25,25,0,0,0-11.85,5.29c-2.85,2.21-5.35,4.87-8,7.34a5.38,5.38,0,0,0-1.73,3.22c-.54,3.35-1.42,6.66-1.27,10.11Zm23-35.56c4.66-1.46,9.19-3.2,12.52-7.11.94-1.1,1.26-1.95.55-3.28-2.56-4.79-17.21-32.66-18.11-34.22a1,1,0,0,0-.83-.41c-.22,0-.52.4-.57.67-.63,3.1-1.14,6.23-1.83,9.32-2.16,9.72-4.32,19.44-6.6,29.14-.49,2.08-.49,2.73,1.66,4.26a9.91,9.91,0,0,0,5.09,1.75c1.07.08,6.6.33,8.07-.12Z"/><path d="M776.4,95.66a76.08,76.08,0,0,0-7.76.72c-5.31,1-9.49,4.15-13.31,7.78a7.64,7.64,0,0,0-1.46,2.26c-1.52,3.17-3.07,6.32-4.44,9.55-1.51,3.54-2.87,7.1-2.74,11.11a11.71,11.71,0,0,0,2.08,6.67,7,7,0,0,1,.84,1.45c.06.14-.33.66-.5.65-4.4-.26-28.13-1.53-31.17-1.77a.64.64,0,0,1-.51-.32.67.67,0,0,1,.27-.55c.85-.57,1.71-1.12,2.58-1.64a36.14,36.14,0,0,0,12.88-12.34c1.94-3.19,3.81-6.4,5.53-9.74,6.47-12.51,33.36-79.46,37-88.36a4.51,4.51,0,0,0-.53-4.71,19.56,19.56,0,0,0-8.23-6.91c-2.65-1.26-5.47-2.16-8.22-3.2-.63-.24-1.3-.38-1.94-.61-.18-.07-.3-.3-.45-.46.25-.14.5-.41.74-.39,4.63.34,52.37,3.71,55.88,3.84a2.73,2.73,0,0,1,2.93,2.22c.23.87.64,1.7.89,2.57,1.44,5,27.82,88.7,30.79,98.21a140,140,0,0,0,6.82,17.76,30.4,30.4,0,0,0,5.5,7.72,34.17,34.17,0,0,0,7.4,6.47c.26.15.4.5.59.75a3.91,3.91,0,0,1-1.15.25c-3.6-.33-51.61-4.41-53.42-4.49-3.77-.18-4-.49-2.37-3.77a6.87,6.87,0,0,0,.59-3.19,33.15,33.15,0,0,0-1.64-9.65c-1.33-4.68-2.7-9.36-4-14.06a9.3,9.3,0,0,0-2.81-4.54,34,34,0,0,0-14.31-7.49,46.45,46.45,0,0,0-12.35-1.79Zm5.67-9.3c4.87.28,9.39-1.09,13.76-3.08,1.91-.87,2.09-1.42,1.54-3.5-.09-.33-.21-.65-.31-1l-9.68-31.85c-.73-2.38-1.55-4.74-2.4-7.08a14.12,14.12,0,0,0-1.11-2c-1.11.19-1.22,1.23-1.6,2-.82,1.62-1.55,3.28-2.26,4.94q-4.47,10.46-8.91,20.94c-1.77,4.17-3.56,8.33-5.28,12.52-.94,2.29-.74,2.9,1.32,4.21a18.56,18.56,0,0,0,3.31,1.72,27.48,27.48,0,0,0,11.62,2.19Z"/><path d="M1078.8,158.54c8.22.27,16-1.71,23.45-4.87a57.06,57.06,0,0,0,15.19-8.87,16.17,16.17,0,0,1,1.65-1.2c.46-.3,1.06-.79,1.42-.08a1.7,1.7,0,0,1-.23,1.52c-2.12,2.51-4.25,5-6.5,7.4-2.48,2.64-5.16,5.09-7.64,7.73-3.72,4-7.33,8-11,12-.31.33-.64.65-.92,1a4.62,4.62,0,0,1-4.84,1.66q-10.35-1.86-20.71-3.62c-7.7-1.3-15.4-2.54-23.11-3.77q-11.89-1.91-23.8-3.76c-3.91-.61-7.84-1.13-11.75-1.73a28,28,0,0,1-3-.68c-.61-.16-.73-.63-.27-1,1.16-.9,2.32-1.82,3.53-2.65a22.22,22.22,0,0,0,9.12-13.08c2.67-10.07,15.22-76.45,16.52-86,.5-3.67.7-7.21-.39-10.74a20.06,20.06,0,0,0-7-10.2c-1.52-1.17-3.18-2.17-4.76-3.27a7,7,0,0,1-1-.92.33.33,0,0,1,0-.32c.12-.15.29-.35.46-.38a3.32,3.32,0,0,1,1,0l21.12,3.3c2.68.43,5.35,1,8,1.38,5.58.89,11.18,1.74,16.76,2.62,3.35.53,6.7,1.09,10.05,1.63,6.48,1,13,2.07,19.44,3.15,4.68.78,9.35,1.65,14,2.46,2.23.38,4.47.7,6.71,1.06a2.21,2.21,0,0,1,2,2,17.87,17.87,0,0,1,.47,2.32c.16,5.13,1.57,10.06,2.42,15.07.72,4.24,1.53,8.46,2.25,12.69a10.26,10.26,0,0,1,0,2.36c0,.16-.26.37-.44.42a.7.7,0,0,1-.61-.11c-.63-.8-1.24-1.61-1.8-2.46a97.43,97.43,0,0,0-10.84-13,26,26,0,0,0-7.77-5.41,67.37,67.37,0,0,0-11.37-4.47c-4.36-1.21-8.72-2.4-13.1-3.54a26.26,26.26,0,0,0-3.69-.55c-1.51-.17-2.11.16-2.45,1.65-1,4.3-6.68,33.14-6.83,34.6a1.52,1.52,0,0,0,1.1,1.54,3.06,3.06,0,0,0,.64.22c4,.74,8,1.45,12,2.21a60.41,60.41,0,0,0,10.14.81,11.89,11.89,0,0,0,8.57-3.48c2.19-2,3.07-1.77,3.75,1.22s1.17,6,1.7,9c.39,2.23.65,4.48,1.08,6.7a78.87,78.87,0,0,1,1.23,8.39,72.09,72.09,0,0,0,1.45,8,8.88,8.88,0,0,1,.3,1.32,1.33,1.33,0,0,1-.39.81c-.07.07-.46,0-.6-.16a13.46,13.46,0,0,1-1.63-1.72c-5.49-7.56-13.2-11.87-21.74-15.07a47,47,0,0,0-9.22-2.13c-3.13-.5-6.23-1.16-9.34-1.74-1.78-.33-2.21-.13-2.66,1.67-1.1,4.39-9.72,41-10.83,45.25-.14.55-.34,1.08-.43,1.64a1,1,0,0,0,.67,1.25l.15,0c1.1.27,2.2.55,3.32.71,4.59.65,9.18,1.32,13.79,1.85,2.44.26,4.84.23,7.21.34Z"/><path d="M1155.15,66.14c-.86-3.81-2.39-7.33-5.56-9.89A8.44,8.44,0,0,1,1148.4,55a3.93,3.93,0,0,1-.42-.88c.3-.09.62-.29.9-.24,4.68.82,9.36,1.6,14,2.52q16.82,3.31,33.61,6.72c2.55.51,5.09,1.07,7.61,1.72a34.83,34.83,0,0,1,3.83,1.38.69.69,0,0,1,.14,1.13,34.17,34.17,0,0,1-3.11,2.06c-3.88,2.12-6.18,5.58-7.94,9.43-1.08,2.36-1.89,4.85-2.82,7.28a9,9,0,0,0-.52,1.61c-1.29,7.49-22.67,81.73-23.61,88.48a17,17,0,0,0,3,12.89c.33.46.7.89,1,1.37a.72.72,0,0,1,.08.62.7.7,0,0,1-.6.19c-3.33-.62-6.67-1.21-10-1.9-8-1.64-15.94-3.33-23.92-5l-13-2.68a12.24,12.24,0,0,1-2-.51c-1.3-.51-2.79-.56-3.89-1.55l3.27-2.33c4.84-3.47,8.34-7.84,9.89-13.75,2.26-8.65,20.74-82.5,21.4-86.63a57.62,57.62,0,0,0-.15-10.83Z"/></g></g></svg>