<?xml version="1.0" encoding="utf-8"?>
<!-- Generator: Adobe Illustrator 15.0.0, SVG Export Plug-In . SVG Version: 6.00 Build 0)  -->
<!DOCTYPE svg PUBLIC "-//W3C//DTD SVG 1.1//EN" "http://www.w3.org/Graphics/SVG/1.1/DTD/svg11.dtd">
<svg version="1.1" id="Layer_1" xmlns="http://www.w3.org/2000/svg" xmlns:xlink="http://www.w3.org/1999/xlink" x="0px" y="0px"
	 width="48px" height="48px" viewBox="0 0 48 48" enable-background="new 0 0 48 48" xml:space="preserve">
<g>
	<path fill="#EFE9ED" d="M24,4C16,4,8,5,8,12v19c0,3.859,3.14,7,7,7l-3,3v1h4.46l4-4H28l4,4h4v-1l-3-3c3.859,0,7-3.141,7-7V12
		C40,5,32.84,4,24,4z M15,34c-1.66,0-3-1.34-3-3s1.34-3,3-3s3,1.34,3,3S16.66,34,15,34z M22,20H12v-8h10V20z M26,20v-8h10v8H26z
		 M33,34c-1.66,0-3-1.34-3-3s1.34-3,3-3s3,1.34,3,3S34.66,34,33,34z"/>
</g>
</svg>
