<?xml version="1.0" standalone="no"?>
<!DOCTYPE svg PUBLIC "-//W3C//DTD SVG 20010904//EN"
 "http://www.w3.org/TR/2001/REC-SVG-20010904/DTD/svg10.dtd">
<svg version="1.0" xmlns="http://www.w3.org/2000/svg"
 width="700.000000pt" height="700.000000pt" viewBox="0 0 700.000000 700.000000"
 preserveAspectRatio="xMidYMid meet">
<metadata>
Created by potrace 1.11, written by Peter Selinger 2001-2013
</metadata>
<g transform="translate(0.000000,700.000000) scale(0.100000,-0.100000)"
fill="#000000" stroke="none">
<path d="M3287 6414 c-1 -1 -96 -4 -212 -8 -115 -4 -221 -8 -235 -10 -14 -2
-65 -7 -114 -11 -50 -4 -97 -8 -105 -10 -9 -1 -41 -6 -71 -9 -30 -4 -68 -9
-85 -12 -98 -16 -144 -24 -175 -29 -19 -3 -43 -8 -52 -11 -9 -3 -25 -7 -35 -9
-194 -45 -396 -116 -510 -181 -318 -180 -470 -397 -519 -741 -9 -62 -11 -2859
-2 -2980 12 -169 71 -342 165 -485 49 -75 166 -200 239 -255 44 -34 188 -116
220 -126 10 -3 42 -14 70 -25 44 -17 101 -30 204 -46 14 -3 46 -5 72 -5 l47
-1 -220 -219 -219 -219 0 -74 0 -73 325 0 325 0 292 292 293 292 549 0 549 0
293 -292 292 -292 291 0 291 0 0 73 0 74 -215 215 c-119 119 -215 217 -213
218 2 1 37 5 78 9 302 25 598 202 764 455 47 72 120 230 129 281 3 14 8 32 11
40 8 24 16 79 24 165 9 103 7 2924 -2 2990 -13 92 -37 197 -57 248 -25 62 -78
170 -87 177 -4 3 -24 28 -44 55 -71 99 -241 233 -359 283 -24 11 -66 29 -93
41 -127 59 -397 128 -606 156 -25 3 -56 8 -70 10 -14 2 -47 6 -75 9 -27 3 -79
8 -115 12 -161 16 -409 26 -743 28 -158 1 -289 1 -290 0z m-77 -1747 l0 -583
-730 0 -730 0 0 583 0 583 730 0 730 0 0 -583z m2040 0 l0 -583 -730 0 -730 0
0 583 0 583 730 0 730 0 0 -583z m-2932 -1773 c74 -24 120 -52 176 -107 102
-101 149 -252 122 -395 -21 -109 -116 -237 -216 -293 -131 -72 -306 -70 -434
5 -179 105 -259 334 -186 529 80 214 323 332 538 261z m2612 4 c182 -47 310
-214 315 -408 3 -128 -36 -228 -124 -316 -275 -275 -743 -83 -743 306 0 122
45 227 135 314 108 105 264 144 417 104z"/>
</g>
</svg>
